<svg id="Group_1" data-name="Group 1" xmlns="http://www.w3.org/2000/svg" xmlns:xlink="http://www.w3.org/1999/xlink" width="24.263" height="24.196" viewBox="0 0 24.263 24.196">
  <defs>
    <clipPath id="clip-path">
      <rect id="Rectangle_9" data-name="Rectangle 9" width="24.263" height="24.196" fill="#fff"/>
    </clipPath>
  </defs>
  <g id="Group_10" data-name="Group 10" clip-path="url(#clip-path)">
    <path id="Path_31" data-name="Path 31" d="M2.983,5.965A2.983,2.983,0,1,1,5.965,2.983,2.986,2.986,0,0,1,2.983,5.965m0-4.13A1.148,1.148,0,1,0,4.13,2.983,1.149,1.149,0,0,0,2.983,1.835" fill="#fff"/>
    <path id="Path_32" data-name="Path 32" d="M73.653,5.965a2.983,2.983,0,1,1,2.983-2.983,2.986,2.986,0,0,1-2.983,2.983m0-4.13A1.148,1.148,0,1,0,74.8,2.983a1.149,1.149,0,0,0-1.148-1.148" transform="translate(-61.521)" fill="#fff"/>
    <path id="Path_33" data-name="Path 33" d="M144.324,5.965a2.983,2.983,0,1,1,2.983-2.983,2.986,2.986,0,0,1-2.983,2.983m0-4.13a1.148,1.148,0,1,0,1.148,1.148,1.149,1.149,0,0,0-1.148-1.148" transform="translate(-123.044)" fill="#fff"/>
    <path id="Path_34" data-name="Path 34" d="M2.983,76.378A2.983,2.983,0,1,1,5.965,73.4a2.986,2.986,0,0,1-2.983,2.983m0-4.13A1.148,1.148,0,1,0,4.13,73.4a1.149,1.149,0,0,0-1.148-1.148" transform="translate(0 -61.298)" fill="#fff"/>
    <path id="Path_35" data-name="Path 35" d="M73.653,76.378A2.983,2.983,0,1,1,76.635,73.4a2.986,2.986,0,0,1-2.983,2.983m0-4.13A1.148,1.148,0,1,0,74.8,73.4a1.149,1.149,0,0,0-1.148-1.148" transform="translate(-61.521 -61.298)" fill="#fff"/>
    <path id="Path_36" data-name="Path 36" d="M144.324,76.378a2.983,2.983,0,1,1,2.983-2.983,2.986,2.986,0,0,1-2.983,2.983m0-4.13a1.148,1.148,0,1,0,1.148,1.148,1.149,1.149,0,0,0-1.148-1.148" transform="translate(-123.044 -61.298)" fill="#fff"/>
    <path id="Path_37" data-name="Path 37" d="M2.983,146.791a2.983,2.983,0,1,1,2.983-2.983,2.986,2.986,0,0,1-2.983,2.983m0-4.13a1.148,1.148,0,1,0,1.148,1.148,1.149,1.149,0,0,0-1.148-1.148" transform="translate(0 -122.595)" fill="#fff"/>
    <path id="Path_38" data-name="Path 38" d="M73.653,146.791a2.983,2.983,0,1,1,2.983-2.983,2.986,2.986,0,0,1-2.983,2.983m0-4.13a1.148,1.148,0,1,0,1.148,1.148,1.149,1.149,0,0,0-1.148-1.148" transform="translate(-61.521 -122.595)" fill="#fff"/>
    <path id="Path_39" data-name="Path 39" d="M144.324,146.791a2.983,2.983,0,1,1,2.983-2.983,2.986,2.986,0,0,1-2.983,2.983m0-4.13a1.148,1.148,0,1,0,1.148,1.148,1.149,1.149,0,0,0-1.148-1.148" transform="translate(-123.044 -122.595)" fill="#fff"/>
  </g>
</svg>
