<svg xmlns="http://www.w3.org/2000/svg" xmlns:xlink="http://www.w3.org/1999/xlink" width="74.865" height="99.596" viewBox="0 0 74.865 99.596">
  <defs>
    <clipPath id="clip-path">
      <rect id="Rectangle_47" data-name="Rectangle 47" width="74.865" height="99.596" fill="#f8f8f8"/>
    </clipPath>
  </defs>
  <g id="Group_328" data-name="Group 328" transform="translate(0 0)">
    <g id="Group_289" data-name="Group 289" transform="translate(0 0.001)" clip-path="url(#clip-path)">
      <path id="Path_74" data-name="Path 74" d="M27.306,58.431a15.543,15.543,0,0,0,1.424.7,2.351,2.351,0,0,1,1.719,2.332,3.174,3.174,0,0,1-1.526,3.028,4.849,4.849,0,0,1-4.41.273,3.659,3.659,0,0,1-2.174-4.166,2.289,2.289,0,0,1,.474-.87,7.854,7.854,0,0,1,3.1-2.145,6.1,6.1,0,0,0,.972-.643,6.2,6.2,0,0,0-1.009-.589A13.974,13.974,0,0,1,17.8,49.59a4.262,4.262,0,0,1-.5-1.29c-.308-2.037-1.689-2.87-3.85-3.17a5.647,5.647,0,0,0-3.43.814c-3.566,1.874-6.035,6.029-4.265,9.727,1.376,2.87,3.213,4.4,6.76,3.783A2.527,2.527,0,0,0,14.883,56.7a2.223,2.223,0,0,0-2.876-2.439c-.811.166-1.612.386-2.415.584-1.307.321-1.952-.062-2.276-1.382a12.776,12.776,0,0,1-.284-1.521c-.158-1.29.7-2.244,2.345-2.418a10.882,10.882,0,0,1,7.647,1.987,10.405,10.405,0,0,1,3.6,3.7,6.048,6.048,0,0,1-.407,5.989,3.916,3.916,0,0,1-2.388,1.483c-2.04.659-4.118,1.234-6.083,2.072a16.163,16.163,0,0,0-3.81,2.361,4.359,4.359,0,0,0-1.111,6.121,8.842,8.842,0,0,0,6.38,4.479,4.537,4.537,0,0,0,2.985-.6c.736-.42.851-1.157.244-2.008-.75-1.05-1.6-2.027-2.38-3.058A17.792,17.792,0,0,1,12.8,70.187a2.178,2.178,0,0,1,.214-2.61,9.111,9.111,0,0,1,6.664-3.36A4,4,0,0,1,23,65.978a11.409,11.409,0,0,1,2.281,9.473,17.913,17.913,0,0,1-.857,2.972A7.26,7.26,0,0,1,20.5,82.811c-4.273,1.877-8.637,2.477-13.141.819-3.414-1.253-5.43-3.78-6.736-7.058C-1.385,71.542,1.734,65.2,5.986,63.234c1.1-.511,2.273-.854,3.4-1.3a6.637,6.637,0,0,0,.945-.608,5.431,5.431,0,0,0-.758-.2C3.782,60.854,1.948,57.8.669,54.139c-1.478-4.222.771-9.933,4.388-11.992A13.33,13.33,0,0,1,13.4,40.64,7.866,7.866,0,0,1,16.16,41.97c1.114.659,1.084.7,1.7-.426a15.839,15.839,0,0,1,11.309-8.179,16.373,16.373,0,0,1,3.855.088c.38.016.755.1,1.384.179a3.618,3.618,0,0,0-.5-.9c-2-1.735-2.067-3.823-.9-5.952,1.21-2.214,2.637-4.311,3.965-6.463.23-.369.436-.752.653-1.13-.083-.078-.166-.158-.246-.236a4.892,4.892,0,0,0-.825.522,50.1,50.1,0,0,1-10.4,7.569A21.72,21.72,0,0,1,16.645,29.9,12.148,12.148,0,0,1,8.085,27c-3.122-2.594-5.406-5.746-6.027-9.829a9.894,9.894,0,0,1,2.68-8.851,16.69,16.69,0,0,1,5.4-4,15.658,15.658,0,0,1,6.378-1.507A15,15,0,0,1,24.264,5.5a11.269,11.269,0,0,1,4.664,4.959,12.708,12.708,0,0,1,.45,9.585,8.593,8.593,0,0,1-7.521,5.866,19.032,19.032,0,0,1-7.4-.506c-2.651-.693-4.329-2.525-5.588-4.91-1.138-2.153-.637-4.212-.086-6.316,1.229-4.7,5.106-6.859,9.794-6.477a11.657,11.657,0,0,1,5.317,1.989,4.4,4.4,0,0,1,2.054,3.783,11.117,11.117,0,0,1-.391,3.681A7.387,7.387,0,0,1,20.034,22.3a9.024,9.024,0,0,1-4.758.214,4.448,4.448,0,0,1-3.347-5.7,8.961,8.961,0,0,1,1.684-3.706,4.434,4.434,0,0,1,5.341-1.2c.284.129.57.249.846.394,1.928,1.007,2.458,2.1,1.839,4.2A7.726,7.726,0,0,1,20.4,19.044a3.7,3.7,0,0,1-5.789-.088,4.063,4.063,0,0,1-.228-3.663c.482-1.341,2.72-1.424,3.663-.171a8.5,8.5,0,0,1,.771,1.663c-.1.075-.212.153-.316.23a10.136,10.136,0,0,0-1.125-.83c-.469-.265-1.012-.661-1.475-.608-.693.08-.835.811-.934,1.448-.238,1.548.155,2.228,1.561,2.653a2.085,2.085,0,0,0,2.835-1.315,7.454,7.454,0,0,0,.487-1.384,2.658,2.658,0,0,0-2.083-3.518,4.019,4.019,0,0,0-3.1.257,2.514,2.514,0,0,0-1.191,1.5,24.9,24.9,0,0,0-.378,4.375,1.607,1.607,0,0,0,.83,1.165,8.426,8.426,0,0,0,6.945.083c1.882-.8,2.418-2.573,2.359-4.447-.129-4.11-2.605-6.075-6.316-6.407-3.154-.284-5.481,1.585-6.179,4.8a24.62,24.62,0,0,0-.479,3.371,4.694,4.694,0,0,0,3.529,5.106,15.257,15.257,0,0,0,8.6.016c2.308-.64,3.561-2.535,4.562-4.592,1.323-2.72.838-5.376-.455-7.885a16.142,16.142,0,0,0-5.13-5.633,7.942,7.942,0,0,0-7.181-1.106A32.024,32.024,0,0,0,9.244,6.107,5.629,5.629,0,0,0,6.6,8.955C5.169,12.09,4.3,15.346,5.5,18.714a13.651,13.651,0,0,0,8.4,8.477c4.752,1.813,9.2.878,13.242-1.8,4.163-2.76,8.174-5.759,12.121-8.822a9.979,9.979,0,0,1,8.584-2.054c3.068.627,6.147,1.221,9.24,1.708a19.012,19.012,0,0,0,8.1-.22,8.783,8.783,0,0,0,5.714-4.98A14.62,14.62,0,0,0,71.719.966a4.548,4.548,0,0,1-.1-.533A2.767,2.767,0,0,1,71.641.01c.926,0,1.85-.037,2.766.035.153.013.378.5.386.768a34.294,34.294,0,0,1,.013,4.029,49.946,49.946,0,0,1-.771,6.062c-.94,4.5-3.545,6.849-8.129,7.716a37.61,37.61,0,0,1-11.764.1c-2.8-.351-5.625-.53-8.444-.707-3.6-.228-5.9,1.74-7.521,4.667a21.942,21.942,0,0,0-1.965,4.37,16.656,16.656,0,0,0-.538,4.423,4.035,4.035,0,0,0,1.719,2.851,7.266,7.266,0,0,0,9.928-.854A9.828,9.828,0,0,0,49.352,28.2a13.157,13.157,0,0,0,.04-2.535,2.7,2.7,0,0,0-1.963-2.286A9.562,9.562,0,0,0,42.744,23a2.9,2.9,0,0,0-1.78,4.538,1.529,1.529,0,0,0,2.129.493,5.537,5.537,0,0,0,1.28-.972c.4-.394.723-.865,1.157-1.258a3.64,3.64,0,0,1-1.392,2.878,2.738,2.738,0,0,1-3.076-.2,3.082,3.082,0,0,1-1.347-3.689,4.4,4.4,0,0,1,5.374-2.822,8.389,8.389,0,0,1,5.818,4.27,6.472,6.472,0,0,1,.544,3.473,6.727,6.727,0,0,1-2.15,5.213,4.706,4.706,0,0,0-.605.776l.088.212a6.36,6.36,0,0,0,1.015-.273,13.978,13.978,0,0,1,10.246-.5c2.56.809,5,2.062,6.174,4.715a12.047,12.047,0,0,1-1.151,12.083,7.38,7.38,0,0,1-1.475,1.47c-1.62,1.371-3.365,2.608-4.87,4.088-1.539,1.521-1.422,2.043-.672,3.633a9.206,9.206,0,0,0,3.526,4.024,2.124,2.124,0,0,0,2.8-.005,2.505,2.505,0,0,0,.7-2.95,1.046,1.046,0,0,0-.752-.477A3.416,3.416,0,0,1,61.129,59.2a1.232,1.232,0,0,1,.378-1.446c2.273-2.112,4.771-2.311,7.481-.817a6.045,6.045,0,0,1,3.438,5.933,9.042,9.042,0,0,1-.71,3.076c-.94,2.241-2.2,4.311-4.83,4.835-2.324.463-4.718.669-6.942-.4a7.368,7.368,0,0,1-3.73-7.853c.4-1.644,1.052-3.229,1.6-4.838.107-.316.273-.616.361-.937.177-.629-.088-.9-.731-.728a6.084,6.084,0,0,0-1.224.49,11.134,11.134,0,0,1-10.458.051,1.084,1.084,0,0,0-.809-.019c-3.036,1.382-5.722,3.159-7.06,6.4a8.122,8.122,0,0,0,2.3,8.892,6.23,6.23,0,0,0,6,.345,2.527,2.527,0,0,0,.934-1.641c.07-.637-.549-1.071-1.2-1.224-.755-.177-1.515-.345-2.281-.458-2.859-.418-4.407-2.469-3.51-5.419a4.184,4.184,0,0,1,1.914-2.118,9.735,9.735,0,0,1,6.38-1.162c3.6.6,5.173,2.351,5.3,5.957A15.946,15.946,0,0,1,53.2,70.1a7.038,7.038,0,0,1-3.068,4.241c-.086.059-.171.118-.252.182-.9.718-.881.948.182,1.36a16.508,16.508,0,0,1,6.889,4.627,9.808,9.808,0,0,1,2.321,6.418,11.373,11.373,0,0,1-4.434,9.4,13.882,13.882,0,0,1-9.352,3.253c-7.007-.286-11.333-6.238-10.723-11.558.581-5.076,3.6-7.877,8.112-8.613a8.64,8.64,0,0,1,5.3.865,2.975,2.975,0,0,1,1.3,1.341c.659,1.531,1.02,3.066-.359,4.533a2.587,2.587,0,0,1-2.584.817,12.486,12.486,0,0,1-1.756-.6,5.826,5.826,0,0,0-1.1-.359c-.846-.115-1.277.466-.945,1.258A3.966,3.966,0,0,0,44.54,89.3c3.438,1.893,5.858.72,7.735-2.155.83-1.272.618-5.7-.327-6.894a7.105,7.105,0,0,0-3.665-2.067,15.4,15.4,0,0,0-5.625-.49,10.841,10.841,0,0,1-6.41-1.489c-3.3-2-5.3-4.876-5.363-8.79a10.742,10.742,0,0,1,3.564-8.051c2.212-2.161,4.991-2.71,7.847-3.162.458-.072.932-.08,1.384-.177.233-.051.605-.214.618-.351.019-.228-.19-.482-.324-.715-.048-.083-.158-.131-.238-.2-2.506-1.968-3.122-4.541-2.5-7.548a7.082,7.082,0,0,1,3.9-5.2A9.3,9.3,0,0,1,53.178,42a2.015,2.015,0,0,1,.75,2.4,18.973,18.973,0,0,0-.618,2.316,3.5,3.5,0,0,0,.19,1.767,6.134,6.134,0,0,0,1.234,1.767,3.257,3.257,0,0,0,4.736-.415,10.015,10.015,0,0,0,1.382-3.315,4.686,4.686,0,0,0-2.163-4.75,12.714,12.714,0,0,0-7.872-2.683q-1.594.024-3.186.11c-2.549.137-4.129,1.676-5.384,3.7a21.049,21.049,0,0,0-2.557,6.776c-.161.731-.329,1.462-.525,2.185a7.473,7.473,0,0,1-6.827,5.531c-1.213.1-2.426.179-3.633.327a8.078,8.078,0,0,0-1.373.415l-.024.295M47.21,36.65c-.024-.048-.046-.1-.07-.147-.937.142-1.874.281-2.811.428-2.246.353-4.361-.305-6.5-.809a17.609,17.609,0,0,0-7.462-.479,17.582,17.582,0,0,0-10.576,6.619A6.787,6.787,0,0,0,20.38,51.8a13.3,13.3,0,0,0,8.466,3.762,7.817,7.817,0,0,0,6.8-2.726c.843-.91,1.556-1.936,2.361-2.881a5.909,5.909,0,0,0,1.368-3.708c.029-.72-.088-1.44-.115-2.163a2.763,2.763,0,0,0-1.5-2.546A10.751,10.751,0,0,0,34.4,40.457a11.2,11.2,0,0,0-7.748,1.6,6.173,6.173,0,0,0-2.348,3.106,2.883,2.883,0,0,0,1.714,3.561,4.486,4.486,0,0,0,5.971-1.96c.452-.776.79-1.623,1.194-2.428a7.382,7.382,0,0,1,.61-1.071.79.79,0,0,1,1.216-.174,2.629,2.629,0,0,1,1.347,1.987,7.357,7.357,0,0,1-1.518,5.521,8.9,8.9,0,0,1-6.193,3.191c-2.809.225-5.234-.624-6.691-3.162a15.591,15.591,0,0,1-1.475-3.965,5.432,5.432,0,0,1,1.392-5.51,10.469,10.469,0,0,1,4.592-2.79c4.819-1.341,9.51-1.823,13.524,2.1a.954.954,0,0,0,.876.021c1.379-.763,2.734-1.574,4.086-2.391.766-.458,1.507-.956,2.26-1.435" transform="translate(0.001 -0.001)" fill="#f8f8f8"/>
    </g>
  </g>
</svg>
