<svg xmlns="http://www.w3.org/2000/svg" width="11.431" height="7.716" viewBox="0 0 11.431 7.716">
  <path id="Icon_zocial-email" data-name="Icon zocial-email" d="M.072,11.1V4.751q0-.011.033-.209l3.737,3.2L.116,11.321a.934.934,0,0,1-.044-.22Zm.5-7a.475.475,0,0,1,.187-.033H10.819a.624.624,0,0,1,.2.033L7.27,7.309l-.5.4-.981.8-.981-.8-.5-.4Zm.011,7.65,3.759-3.6L5.793,9.326,7.248,8.147l3.759,3.6a.529.529,0,0,1-.187.033H.755a.5.5,0,0,1-.176-.033ZM7.744,7.739l3.726-3.2a.658.658,0,0,1,.033.209V11.1a.845.845,0,0,1-.033.22Z" transform="translate(-0.072 -4.068)"/>
</svg>
