<svg xmlns="http://www.w3.org/2000/svg" xmlns:xlink="http://www.w3.org/1999/xlink" width="292.059" height="87.305" viewBox="0 0 292.059 87.305">
  <defs>
    <clipPath id="clip-path">
      <rect id="Rectangle_4" data-name="Rectangle 4" width="65.626" height="87.305" fill="#721a33"/>
    </clipPath>
    <clipPath id="clip-path-2">
      <rect id="Rectangle_7" data-name="Rectangle 7" width="217.817" height="17.276" fill="#721a33"/>
    </clipPath>
  </defs>
  <g id="Group_445" data-name="Group 445" transform="translate(-833.941 -183)">
    <g id="Group_5" data-name="Group 5" transform="translate(833.941 183)">
      <g id="Group_4" data-name="Group 4" transform="translate(0 0)" clip-path="url(#clip-path)">
        <path id="Path_16" data-name="Path 16" d="M23.936,51.22a13.624,13.624,0,0,0,1.249.61,2.061,2.061,0,0,1,1.507,2.044,2.782,2.782,0,0,1-1.338,2.654,4.251,4.251,0,0,1-3.865.239,3.208,3.208,0,0,1-1.906-3.652A2.007,2.007,0,0,1,20,52.354a6.884,6.884,0,0,1,2.718-1.88,5.35,5.35,0,0,0,.852-.563,5.433,5.433,0,0,0-.885-.516A12.25,12.25,0,0,1,15.6,43.47a3.736,3.736,0,0,1-.439-1.131c-.27-1.786-1.481-2.516-3.375-2.779a4.95,4.95,0,0,0-3.006.713c-3.126,1.643-5.29,5.285-3.739,8.527,1.206,2.516,2.816,3.854,5.926,3.316A2.215,2.215,0,0,0,13.046,49.7a1.948,1.948,0,0,0-2.521-2.138c-.711.146-1.413.338-2.117.512-1.145.282-1.711-.054-1.995-1.211a11.2,11.2,0,0,1-.249-1.333c-.138-1.131.613-1.967,2.056-2.119a9.539,9.539,0,0,1,6.7,1.741A9.121,9.121,0,0,1,18.076,48.4a5.3,5.3,0,0,1-.357,5.25,3.433,3.433,0,0,1-2.094,1.3c-1.788.577-3.61,1.082-5.332,1.817a14.168,14.168,0,0,0-3.34,2.07A3.821,3.821,0,0,0,5.979,64.2a7.751,7.751,0,0,0,5.593,3.926,3.977,3.977,0,0,0,2.617-.526c.645-.368.746-1.014.214-1.76-.657-.92-1.406-1.777-2.086-2.68a15.6,15.6,0,0,1-1.094-1.633,1.91,1.91,0,0,1,.188-2.288,7.987,7.987,0,0,1,5.842-2.945,3.5,3.5,0,0,1,2.913,1.544,10,10,0,0,1,2,8.3,15.7,15.7,0,0,1-.751,2.605,6.364,6.364,0,0,1-3.441,3.847c-3.746,1.645-7.571,2.171-11.519.718a10,10,0,0,1-5.9-6.187c-1.763-4.41.972-9.965,4.7-11.693.962-.448,1.993-.749,2.983-1.138a5.817,5.817,0,0,0,.828-.533,4.76,4.76,0,0,0-.664-.176c-5.079-.239-6.687-2.913-7.808-6.126-1.3-3.7.676-8.707,3.847-10.512a11.685,11.685,0,0,1,7.318-1.321,6.9,6.9,0,0,1,2.415,1.166c.976.577.951.613,1.488-.373a13.884,13.884,0,0,1,9.914-7.17,14.352,14.352,0,0,1,3.38.077c.333.014.662.084,1.213.157a3.172,3.172,0,0,0-.434-.786c-1.753-1.521-1.812-3.351-.791-5.217C30,21.538,31.247,19.7,32.411,17.813c.2-.324.383-.66.573-.99-.073-.068-.146-.138-.216-.207a4.288,4.288,0,0,0-.723.458,43.915,43.915,0,0,1-9.116,6.635,19.04,19.04,0,0,1-8.339,2.5,10.649,10.649,0,0,1-7.5-2.544A13.826,13.826,0,0,1,1.8,15.053,8.673,8.673,0,0,1,4.154,7.294,14.63,14.63,0,0,1,8.887,3.788a13.726,13.726,0,0,1,5.591-1.321A13.148,13.148,0,0,1,21.27,4.82a9.878,9.878,0,0,1,4.088,4.347,11.14,11.14,0,0,1,.394,8.4,7.533,7.533,0,0,1-6.593,5.142,16.683,16.683,0,0,1-6.487-.444,7.742,7.742,0,0,1-4.9-4.3c-1-1.887-.559-3.692-.075-5.537,1.077-4.117,4.476-6.013,8.585-5.677a10.219,10.219,0,0,1,4.661,1.744,3.855,3.855,0,0,1,1.8,3.316,9.745,9.745,0,0,1-.343,3.227,6.475,6.475,0,0,1-4.842,4.511,7.91,7.91,0,0,1-4.171.188,3.9,3.9,0,0,1-2.934-5,7.855,7.855,0,0,1,1.476-3.248,3.887,3.887,0,0,1,4.682-1.056c.249.113.5.218.742.345,1.69.882,2.155,1.842,1.612,3.682a6.773,6.773,0,0,1-1.091,2.232,3.239,3.239,0,0,1-5.074-.077,3.562,3.562,0,0,1-.2-3.211c.422-1.176,2.385-1.249,3.211-.15a7.452,7.452,0,0,1,.676,1.457c-.092.066-.185.134-.277.2a8.885,8.885,0,0,0-.986-.728c-.411-.232-.887-.58-1.293-.533-.608.07-.732.711-.819,1.27-.209,1.357.136,1.953,1.368,2.326A1.828,1.828,0,0,0,16.97,16.1a6.534,6.534,0,0,0,.427-1.213A2.33,2.33,0,0,0,15.572,11.8a3.523,3.523,0,0,0-2.718.225,2.2,2.2,0,0,0-1.044,1.312,21.829,21.829,0,0,0-.331,3.835,1.409,1.409,0,0,0,.728,1.021,7.386,7.386,0,0,0,6.088.073c1.65-.7,2.119-2.255,2.068-3.9-.113-3.6-2.284-5.325-5.537-5.616-2.765-.249-4.8,1.389-5.417,4.206a21.582,21.582,0,0,0-.42,2.955,4.115,4.115,0,0,0,3.093,4.476,13.374,13.374,0,0,0,7.538.014c2.023-.561,3.121-2.223,4-4.025a7.378,7.378,0,0,0-.4-6.912,14.15,14.15,0,0,0-4.5-4.938,6.962,6.962,0,0,0-6.295-.969A28.072,28.072,0,0,0,8.1,5.353a4.935,4.935,0,0,0-2.319,2.5C4.531,10.6,3.773,13.452,4.82,16.4a11.966,11.966,0,0,0,7.36,7.431c4.166,1.589,8.064.77,11.608-1.577,3.65-2.42,7.165-5.048,10.625-7.733a8.747,8.747,0,0,1,7.524-1.8c2.69.549,5.389,1.07,8.1,1.5a16.665,16.665,0,0,0,7.1-.192,7.7,7.7,0,0,0,5.008-4.365A12.816,12.816,0,0,0,62.868.847,3.988,3.988,0,0,1,62.781.38,2.425,2.425,0,0,1,62.8.009c.812,0,1.622-.033,2.424.031.134.012.331.434.338.674a30.063,30.063,0,0,1,.012,3.532A43.782,43.782,0,0,1,64.9,9.559c-.824,3.945-3.107,6-7.125,6.764a32.968,32.968,0,0,1-10.313.092c-2.455-.307-4.931-.465-7.4-.62-3.152-.2-5.175,1.526-6.593,4.091a19.234,19.234,0,0,0-1.723,3.83,14.6,14.6,0,0,0-.472,3.877,3.537,3.537,0,0,0,1.507,2.5,6.37,6.37,0,0,0,8.7-.749,8.615,8.615,0,0,0,1.781-4.624A11.533,11.533,0,0,0,43.3,22.5a2.369,2.369,0,0,0-1.72-2,8.382,8.382,0,0,0-4.107-.331,2.54,2.54,0,0,0-1.561,3.978,1.34,1.34,0,0,0,1.866.432A4.853,4.853,0,0,0,38.9,23.72c.352-.345.634-.758,1.014-1.1a3.19,3.19,0,0,1-1.22,2.523,2.4,2.4,0,0,1-2.7-.176,2.7,2.7,0,0,1-1.181-3.234,3.854,3.854,0,0,1,4.71-2.474A7.353,7.353,0,0,1,44.622,23a5.673,5.673,0,0,1,.476,3.044,5.9,5.9,0,0,1-1.885,4.57,4.125,4.125,0,0,0-.53.681l.077.185a5.575,5.575,0,0,0,.89-.239,12.253,12.253,0,0,1,8.982-.434c2.244.709,4.386,1.807,5.412,4.133a10.561,10.561,0,0,1-1.009,10.592,6.469,6.469,0,0,1-1.293,1.288c-1.42,1.2-2.95,2.286-4.269,3.584-1.35,1.333-1.246,1.791-.589,3.185a8.07,8.07,0,0,0,3.091,3.528,1.862,1.862,0,0,0,2.453,0,2.2,2.2,0,0,0,.613-2.586.917.917,0,0,0-.659-.418,3,3,0,0,1-2.8-2.209,1.08,1.08,0,0,1,.331-1.267,5.152,5.152,0,0,1,6.557-.716,5.3,5.3,0,0,1,3.014,5.2,7.927,7.927,0,0,1-.622,2.7c-.824,1.964-1.932,3.779-4.234,4.239a9.46,9.46,0,0,1-6.086-.35,6.459,6.459,0,0,1-3.269-6.884c.35-1.441.922-2.83,1.4-4.241.094-.277.239-.54.317-.821.155-.552-.077-.791-.641-.638a5.333,5.333,0,0,0-1.073.43,9.76,9.76,0,0,1-9.167.045.95.95,0,0,0-.709-.016c-2.661,1.211-5.015,2.769-6.189,5.614a7.12,7.12,0,0,0,2.016,7.794,5.461,5.461,0,0,0,5.257.3,2.215,2.215,0,0,0,.819-1.439c.061-.559-.481-.939-1.056-1.073-.662-.155-1.328-.3-2-.4-2.507-.366-3.863-2.164-3.077-4.75a3.668,3.668,0,0,1,1.678-1.856,8.534,8.534,0,0,1,5.593-1.019c3.152.528,4.534,2.061,4.647,5.222a13.978,13.978,0,0,1-.458,3.481,6.17,6.17,0,0,1-2.69,3.718c-.075.052-.15.1-.221.16-.793.629-.772.831.16,1.192a14.471,14.471,0,0,1,6.039,4.056A8.6,8.6,0,0,1,51.961,76.2a9.97,9.97,0,0,1-3.887,8.243,12.169,12.169,0,0,1-8.2,2.852c-6.142-.251-9.935-5.468-9.4-10.132.509-4.45,3.159-6.9,7.111-7.55a7.573,7.573,0,0,1,4.647.758,2.608,2.608,0,0,1,1.136,1.176c.577,1.342.894,2.687-.314,3.973a2.268,2.268,0,0,1-2.265.716,10.944,10.944,0,0,1-1.54-.528,5.107,5.107,0,0,0-.967-.314c-.742-.1-1.12.408-.828,1.1a3.477,3.477,0,0,0,1.587,1.786c3.014,1.659,5.135.631,6.78-1.889.728-1.115.542-5-.286-6.043a6.229,6.229,0,0,0-3.213-1.812,13.5,13.5,0,0,0-4.931-.429,9.5,9.5,0,0,1-5.619-1.3,8.856,8.856,0,0,1-4.7-7.705A9.416,9.416,0,0,1,30.2,52.041c1.939-1.894,4.375-2.375,6.879-2.772.4-.063.817-.07,1.213-.155.2-.045.53-.188.542-.307.016-.2-.167-.422-.284-.627-.042-.073-.138-.115-.209-.171a6.147,6.147,0,0,1-2.192-6.616,6.208,6.208,0,0,1,3.422-4.56,8.148,8.148,0,0,1,7.046-.019,1.767,1.767,0,0,1,.657,2.108,16.631,16.631,0,0,0-.542,2.03A3.064,3.064,0,0,0,46.9,42.5a5.377,5.377,0,0,0,1.082,1.549,2.855,2.855,0,0,0,4.152-.364,8.779,8.779,0,0,0,1.211-2.906,4.108,4.108,0,0,0-1.9-4.164,11.145,11.145,0,0,0-6.9-2.352q-1.4.021-2.793.1c-2.234.12-3.619,1.469-4.72,3.246a18.451,18.451,0,0,0-2.241,5.94c-.141.641-.289,1.281-.46,1.915a6.55,6.55,0,0,1-5.985,4.849c-1.063.089-2.126.157-3.185.286a7.08,7.08,0,0,0-1.2.364l-.021.258M41.384,32.127c-.021-.042-.04-.087-.061-.129-.821.124-1.643.246-2.464.376a14.681,14.681,0,0,1-5.7-.709,15.436,15.436,0,0,0-6.541-.42,15.412,15.412,0,0,0-9.271,5.8,5.95,5.95,0,0,0,.519,8.358,11.661,11.661,0,0,0,7.421,3.3,6.853,6.853,0,0,0,5.959-2.389c.739-.8,1.364-1.7,2.07-2.525a5.18,5.18,0,0,0,1.2-3.251c.026-.631-.077-1.263-.1-1.9a2.422,2.422,0,0,0-1.319-2.232,9.424,9.424,0,0,0-2.936-.943,9.822,9.822,0,0,0-6.792,1.4,5.411,5.411,0,0,0-2.058,2.722,2.527,2.527,0,0,0,1.5,3.121,3.933,3.933,0,0,0,5.234-1.718c.4-.681.692-1.422,1.047-2.129a6.471,6.471,0,0,1,.535-.939.693.693,0,0,1,1.066-.153,2.3,2.3,0,0,1,1.181,1.741,6.449,6.449,0,0,1-1.331,4.839,7.8,7.8,0,0,1-5.429,2.8c-2.462.2-4.588-.547-5.865-2.772A13.667,13.667,0,0,1,17.954,40.9a4.761,4.761,0,0,1,1.22-4.83A9.177,9.177,0,0,1,23.2,33.625c4.225-1.176,8.336-1.6,11.855,1.838a.837.837,0,0,0,.767.019c1.209-.669,2.4-1.38,3.581-2.1.671-.4,1.321-.838,1.981-1.258" transform="translate(0.001 -0.001)" fill="#721a33"/>
      </g>
    </g>
    <g id="Group_9" data-name="Group 9" transform="translate(908.183 226.653)">
      <g id="Group_8" data-name="Group 8" transform="translate(0 0)">
        <path id="Path_17" data-name="Path 17" d="M7.9,5.753l1.764,5.031H6.135ZM5.754,1.282,0,16.4H4.19l.9-2.627H10.7l.9,2.627H15.8L10.043,1.282Z" transform="translate(0 -0.257)" fill="#721a33"/>
        <g id="Group_7" data-name="Group 7" transform="translate(0 0)">
          <g id="Group_6" data-name="Group 6" clip-path="url(#clip-path-2)">
            <path id="Path_18" data-name="Path 18" d="M34.02,16.4H29.129L25.38,10.584V16.4H21.451V1.283h6.114a6,6,0,0,1,2.205.371,4.15,4.15,0,0,1,2.476,2.5,5.164,5.164,0,0,1,.31,1.8,4.431,4.431,0,0,1-.832,2.8A4.185,4.185,0,0,1,29.269,10.2ZM25.38,8.038h.742a2.864,2.864,0,0,0,1.784-.481,1.646,1.646,0,0,0,.622-1.384,1.645,1.645,0,0,0-.622-1.383,2.869,2.869,0,0,0-1.784-.481H25.38Z" transform="translate(-4.292 -0.257)" fill="#721a33"/>
            <path id="Path_19" data-name="Path 19" d="M49.131,6.229a4.193,4.193,0,0,0-3.368-1.664,4.118,4.118,0,0,0-1.633.321,3.974,3.974,0,0,0-1.293.872,4.022,4.022,0,0,0-.852,1.313,4.306,4.306,0,0,0-.31,1.643,4.36,4.36,0,0,0,.31,1.664A4.013,4.013,0,0,0,45.743,12.9a4.549,4.549,0,0,0,3.388-1.6v4.651l-.4.141a11.613,11.613,0,0,1-1.684.47,8.185,8.185,0,0,1-1.544.15,7.89,7.89,0,0,1-5.523-2.255,8.25,8.25,0,0,1-1.754-2.546A7.765,7.765,0,0,1,37.565,8.7a7.731,7.731,0,0,1,.651-3.2A7.982,7.982,0,0,1,45.523.757,8.278,8.278,0,0,1,47.3.947a10.785,10.785,0,0,1,1.834.591Z" transform="translate(-7.516 -0.152)" fill="#721a33"/>
            <path id="Path_20" data-name="Path 20" d="M64.031,13.771H58.418l-.9,2.626h-4.19L59.08,1.283h4.29L69.123,16.4H64.934Zm-1.042-2.987L61.225,5.753l-1.764,5.031Z" transform="translate(-10.67 -0.257)" fill="#721a33"/>
            <path id="Path_21" data-name="Path 21" d="M74.778,1.283h5.813a6.858,6.858,0,0,1,2.9.622,7.91,7.91,0,0,1,2.365,1.653,7.691,7.691,0,0,1,1.593,2.406,7.412,7.412,0,0,1,.01,5.733,7.65,7.65,0,0,1-1.583,2.415,7.793,7.793,0,0,1-2.366,1.664,6.9,6.9,0,0,1-2.916.622H74.778ZM78.707,13.07h.9a4.87,4.87,0,0,0,1.825-.321,3.907,3.907,0,0,0,1.353-.882,3.775,3.775,0,0,0,.842-1.333,4.774,4.774,0,0,0,.291-1.694,4.664,4.664,0,0,0-.3-1.684,3.777,3.777,0,0,0-2.205-2.225,4.829,4.829,0,0,0-1.8-.321h-.9Z" transform="translate(-14.962 -0.257)" fill="#721a33"/>
            <rect id="Rectangle_5" data-name="Rectangle 5" width="3.929" height="15.114" transform="translate(75.211 1.026)" fill="#721a33"/>
            <path id="Path_22" data-name="Path 22" d="M111.343,13.771H105.73l-.9,2.626h-4.19l5.753-15.114h4.29L116.435,16.4h-4.189ZM110.3,10.784l-1.765-5.031-1.764,5.031Z" transform="translate(-20.137 -0.257)" fill="#721a33"/>
            <path id="Path_23" data-name="Path 23" d="M122.7,1.285l4.18,10.473,4.238-10.473h2.5l-6.782,16.248L120.208,1.285Z" transform="translate(-24.052 -0.257)" fill="#721a33"/>
            <rect id="Rectangle_6" data-name="Rectangle 6" width="2.281" height="15.113" transform="translate(112.568 1.028)" fill="#721a33"/>
            <path id="Path_24" data-name="Path 24" d="M149.519,16.14V0L160.54,11.531V1.028h2.281V17.06L151.8,5.559V16.14Z" transform="translate(-29.917 0)" fill="#721a33"/>
            <path id="Path_25" data-name="Path 25" d="M180.869,3.429h-6.059V7.06h5.883V9.2h-5.883v5.051h6.059V16.4H172.53V1.285h8.339Z" transform="translate(-34.521 -0.257)" fill="#721a33"/>
            <path id="Path_26" data-name="Path 26" d="M191.138,9.869,186.2,1.285h2.623l3.456,6.039,3.464-6.039h2.623l-4.952,8.584V16.4h-2.281Z" transform="translate(-37.257 -0.257)" fill="#721a33"/>
            <path id="Path_27" data-name="Path 27" d="M212.165,12.489H205.7l-1.683,3.671h-2.457L209.033.1l7.214,16.062h-2.5Zm-.93-2.144-2.241-5.139-2.349,5.139Z" transform="translate(-40.329 -0.02)" fill="#721a33"/>
            <path id="Path_28" data-name="Path 28" d="M229.257,9.957l4.679,6.44h-2.789l-4.316-6.186h-.411V16.4h-2.281V1.285h2.672a6.676,6.676,0,0,1,4.327,1.125A4.136,4.136,0,0,1,232.6,5.719a4.292,4.292,0,0,1-.92,2.76,4.1,4.1,0,0,1-2.428,1.478m-2.838-1.733h.724q3.24,0,3.24-2.477,0-2.319-3.152-2.32h-.813Z" transform="translate(-44.847 -0.257)" fill="#721a33"/>
            <path id="Path_29" data-name="Path 29" d="M241.08,16.4V1.285h3.171a11.554,11.554,0,0,1,3.6.45,6.739,6.739,0,0,1,2.573,1.5,7.229,7.229,0,0,1,2.34,5.608,7.16,7.16,0,0,1-2.437,5.638,7.1,7.1,0,0,1-2.565,1.5,11.663,11.663,0,0,1-3.553.422Zm2.281-2.144h1.028a8.587,8.587,0,0,0,2.555-.323,5.186,5.186,0,0,0,3.523-5.09A5.25,5.25,0,0,0,248.8,4.809a6.3,6.3,0,0,0-4.414-1.38h-1.028Z" transform="translate(-48.237 -0.257)" fill="#721a33"/>
            <path id="Path_30" data-name="Path 30" d="M269.485,3.463l-1.849,1.1a3.192,3.192,0,0,0-.989-1.175,2.631,2.631,0,0,0-2.839.226,1.67,1.67,0,0,0-.626,1.331q0,1.106,1.645,1.781l1.507.617a6.429,6.429,0,0,1,2.692,1.816,4.085,4.085,0,0,1,.852,2.628,4.62,4.62,0,0,1-1.389,3.445,4.774,4.774,0,0,1-3.476,1.37,4.647,4.647,0,0,1-3.248-1.165,5.359,5.359,0,0,1-1.577-3.279l2.312-.51a3.928,3.928,0,0,0,.547,1.841,2.6,2.6,0,0,0,3.827.264,2.469,2.469,0,0,0,.706-1.81,2.54,2.54,0,0,0-.123-.808,2.033,2.033,0,0,0-.381-.675,3.1,3.1,0,0,0-.671-.578,6.547,6.547,0,0,0-.979-.514l-1.458-.606q-3.1-1.311-3.1-3.837a3.637,3.637,0,0,1,1.3-2.848A4.7,4.7,0,0,1,265.4.918a4.523,4.523,0,0,1,4.082,2.545" transform="translate(-52.06 -0.184)" fill="#721a33"/>
          </g>
        </g>
      </g>
    </g>
  </g>
</svg>
