<svg height="512pt" fill="white" viewBox="0 -1 512 512" width="512pt" xmlns="http://www.w3.org/2000/svg"><path d="m499.375 49.484375h-94.792969c-4.183593 0-7.570312 3.386719-7.570312 7.574219 0 4.183594 3.386719 7.570312 7.570312 7.570312h92.269531v46.460938h-481.703124v-46.460938h359.140624c4.183594 0 7.574219-3.386718 7.574219-7.570312 0-4.1875-3.390625-7.574219-7.574219-7.574219h-224.875l-5.828124-38.746094c-.933594-6.222656-6.183594-10.738281-12.476563-10.738281h-111.75c-6.292969 0-11.542969 4.515625-12.476563 10.742188l-6.7968745 45.1875c-.0078125.050781-.0078125.097656-.015625.148437-.0195313.152344-.0351563.308594-.0429687.464844-.0078126.117187-.015625.234375-.0195313.351562 0 .054688-.0078125.105469-.0078125.164063v269.492187c0 4.183594 3.390625 7.574219 7.574219 7.574219 4.183593 0 7.574219-3.390625 7.574219-7.574219v-200.3125h481.703124v369.601563h-481.703124v-138.992188c0-4.183594-3.390626-7.574218-7.574219-7.574218-4.183594 0-7.574219 3.390624-7.574219 7.574218v141.519532c0 6.960937 5.664062 12.621093 12.625 12.621093h486.75c6.960938 0 12.625-5.660156 12.625-12.621093v-436.261719c0-6.960938-5.664062-12.621094-12.625-12.621094zm-477.839844-34.335937h107.398438l5.164062 34.335937h-117.726562zm0 0"/><path d="m25.921875 87.351562c0 4.183594 3.390625 7.574219 7.574219 7.574219h403.269531c4.183594 0 7.570313-3.390625 7.570313-7.574219 0-4.183593-3.386719-7.574218-7.570313-7.574218h-403.269531c-4.183594 0-7.574219 3.390625-7.574219 7.574218zm0 0"/><path d="m478.503906 87.351562c0 5.578126-4.519531 10.097657-10.097656 10.097657s-10.097656-4.519531-10.097656-10.097657c0-5.578124 4.519531-10.097656 10.097656-10.097656s10.097656 4.519532 10.097656 10.097656zm0 0"/><path d="m329.6875 457.851562c7.808594 0 14.160156-6.351562 14.160156-14.160156v-265.507812c0-7.414063-6.027344-13.445313-13.441406-13.445313-101.742188 0-180.691406 0-282.484375 0h-.617187c-7.074219 0-12.828126 5.753907-12.828126 12.828125v.617188 272.09375c0 4.183594 3.390626 7.574218 7.574219 7.574218zm-198.699219-277.964843h57.757813v59.433593l-22.453125-17.566406c-1.828125-1.425781-4.109375-2.210937-6.425781-2.210937-2.320313 0-4.605469.785156-6.429688 2.214843l-22.449219 17.5625zm-81.359375 0h30.445313 35.765625v69.105469c0 5.753906 4.6875 10.4375 10.449218 10.4375 2.335938 0 4.554688-.765626 6.414063-2.21875l27.164063-21.25 27.164062 21.25c1.859375 1.453124 4.078125 2.21875 6.414062 2.21875 5.761719 0 10.449219-4.683594 10.449219-10.4375v-69.105469h66.210938v86.898437c0 4.183594 3.390625 7.574219 7.574219 7.574219 4.183593 0 7.574218-3.390625 7.574218-7.574219v-86.898437h43.445313v262.816406h-43.445313v-145.621094c0-4.183593-3.390625-7.574219-7.574218-7.574219-4.183594 0-7.574219 3.390626-7.574219 7.574219v145.621094h-220.476563c0-5.660156 0-257.15625 0-262.816406zm0 0"/><path d="m370.308594 179.886719h99.640625c4.183593 0 7.574219-3.386719 7.574219-7.574219 0-4.183594-3.390626-7.570312-7.574219-7.570312h-99.640625c-4.183594 0-7.574219 3.386718-7.574219 7.570312 0 4.1875 3.390625 7.574219 7.574219 7.574219zm0 0"/><path d="m370.308594 219.660156h99.640625c4.183593 0 7.574219-3.390625 7.574219-7.574218 0-4.183594-3.390626-7.574219-7.574219-7.574219h-99.640625c-4.183594 0-7.574219 3.390625-7.574219 7.574219 0 4.183593 3.390625 7.574218 7.574219 7.574218zm0 0"/><path d="m370.308594 259.429688h99.640625c4.183593 0 7.574219-3.390626 7.574219-7.574219 0-4.183594-3.390626-7.574219-7.574219-7.574219h-99.640625c-4.183594 0-7.574219 3.390625-7.574219 7.574219 0 4.183593 3.390625 7.574219 7.574219 7.574219zm0 0"/></svg>
