<svg id="Capa_1" fill="white" enable-background="new 0 0 512 512" height="512" viewBox="0 0 512 512" width="512" xmlns="http://www.w3.org/2000/svg"><g><path d="m437 466h15v15h-15z"/><path d="m15 458.5v-97.5h23.501v-15h-23.501v-165.001h-15v277.501c0 12.406 10.093 22.5 22.5 22.5h399.5v-15h-399.5c-4.135 0-7.5-3.365-7.5-7.5z"/><path d="m489.5 31h-467c-12.407 0-22.5 10.094-22.5 22.5v112.499h15v-30h482v210.001h-23.501v15h23.501v97.5c0 4.135-3.365 7.5-7.5 7.5h-22.5v15h22.5c12.407 0 22.5-10.093 22.5-22.5v-405c0-12.406-10.093-22.5-22.5-22.5zm-474.5 89.999v-67.499c0-4.135 3.365-7.5 7.5-7.5h467c4.135 0 7.5 3.364 7.5 7.5v67.499z"/><path d="m172.499 61c-12.407 0-22.5 10.093-22.5 22.5s10.093 22.5 22.5 22.5 22.5-10.093 22.5-22.5-10.093-22.5-22.5-22.5zm0 30c-4.136 0-7.5-3.364-7.5-7.5s3.364-7.5 7.5-7.5c4.135 0 7.5 3.364 7.5 7.5s-3.365 7.5-7.5 7.5z"/><path d="m52.5 61c-12.407 0-22.5 10.093-22.5 22.5s10.093 22.5 22.5 22.5 22.5-10.093 22.5-22.5-10.093-22.5-22.5-22.5zm0 30c-4.135 0-7.5-3.364-7.5-7.5s3.365-7.5 7.5-7.5c4.136 0 7.5 3.364 7.5 7.5s-3.364 7.5-7.5 7.5z"/><path d="m112.5 61c-12.407 0-22.5 10.093-22.5 22.5s10.093 22.5 22.5 22.5 22.5-10.093 22.5-22.5-10.094-22.5-22.5-22.5zm0 30c-4.136 0-7.5-3.364-7.5-7.5s3.364-7.5 7.5-7.5 7.5 3.364 7.5 7.5-3.365 7.5-7.5 7.5z"/><path d="m233.5 346h15v15h-15z"/><path d="m143.501 346h15v15h-15z"/><path d="m203.501 346h15v15h-15z"/><path d="m173.501 346h15v15h-15z"/><path d="m53.501 346h15v15h-15z"/><path d="m113.5 346h15v15h-15z"/><path d="m83.501 346h15v15h-15z"/><path d="m293.499 346h15v15h-15z"/><path d="m263.5 346h15v15h-15z"/><path d="m443.499 346h15v15h-15z"/><path d="m383.5 346h15v15h-15z"/><path d="m413.499 346h15v15h-15z"/><path d="m353.5 346h15v15h-15z"/><path d="m323.5 346h15v15h-15z"/><path d="m38.502 443.5h434.997v-60h-434.997zm15-45h404.997v30h-404.997z"/><path d="m467 61h15v15h-15z"/><path d="m437 61h15v15h-15z"/></g></svg>
