<svg height="512" fill="white" viewBox="0 0 96 96" width="512" xmlns="http://www.w3.org/2000/svg"><g id="Layer_4"><g><path d="m69 34.259c0-2.352-1.907-4.259-4.259-4.259h-32.482c-2.352 0-4.259 1.907-4.259 4.259v28.481c0 2.353 1.907 4.26 4.259 4.26h32.481c2.353 0 4.26-1.907 4.26-4.259zm-6 26.741h-29v-25h29z"/><path d="m90 47.83c0-1.137-.494-2.216-1.354-2.96l-9.582-8.275c-1.239-1.071-3.11-.933-4.18.306s-.933 3.11.306 4.18l7.814 6.749-7.814 6.749c-1.239 1.07-1.376 2.942-.306 4.18.586.678 2.366 2.087 4.18.306l9.582-8.276c.86-.743 1.354-1.822 1.354-2.959z"/><path d="m12.996 47.83 7.814-6.749c1.239-1.07 1.376-2.941.306-4.18s-2.941-1.376-4.18-.306l-9.581 8.275c-.861.744-1.355 1.822-1.355 2.96 0 1.137.494 2.216 1.354 2.959l9.582 8.276c.56.484 2.314 1.782 4.18-.306 1.091-1.22.933-3.111-.306-4.18z"/></g></g></svg>
